/* XPM */
static char * martex64_xpm[] = {
"64 65 60 1",
" 	c None",
".	c #43BBBB",
"+	c #5ACACA",
"@	c #3FB7B7",
"#	c #36B2B2",
"$	c #37B2B2",
"%	c #5BCACA",
"&	c #47BDBD",
"*	c #3AB4B4",
"=	c #3EB7B7",
"-	c #55C6C6",
";	c #41B9B9",
">	c #39B4B4",
",	c #58C8C8",
"'	c #35B1B1",
")	c #58C9C9",
"!	c #4EC2C2",
"~	c #59C9C9",
"{	c #3BB5B5",
"]	c #5AC9C9",
"^	c #44BABA",
"/	c #4DC1C1",
"(	c #37B3B3",
"_	c #40B8B8",
":	c #4FC2C2",
"<	c #44BBBB",
"[	c #52C4C4",
"}	c #42B9B9",
"|	c #56C7C7",
"1	c #45BBBB",
"2	c #34B1B1",
"3	c #35B2B2",
"4	c #51C3C3",
"5	c #45BCBC",
"6	c #34B0B0",
"7	c #50C3C3",
"8	c #3CB5B5",
"9	c #33B0B0",
"0	c #4EC1C1",
"a	c #4CC0C0",
"b	c #39B3B3",
"c	c #47BEBE",
"d	c #3CB6B6",
"e	c #48BEBE",
"f	c #5CCBCB",
"g	c #54C5C5",
"h	c #5CCACA",
"i	c #46BDBD",
"j	c #4BC0C0",
"k	c #3FB8B8",
"l	c #59C8C8",
"m	c #49BEBE",
"n	c #46BCBC",
"o	c #57C8C8",
"p	c #53C5C5",
"q	c #57C7C7",
"r	c #32AFAF",
"s	c #43BABA",
"t	c #4BBFBF",
"u	c #54C6C6",
"                                                                ",
"                                .+@                             ",
"                             ##      #                          ",
"                                        #$%                     ",
"                       &%*  ######        +=                    ",
"                   #####                    ##                  ",
"               +-      #   #             #   #  #               ",
"               ;   #                          #   >+            ",
"                 #    #       #                #   ,            ",
"             # #                        #       #   #           ",
"            # #      #           #               #              ",
"           ##        #                 '             #          ",
"          #                         '&)!              #         ",
"         ~          #               {%~]^             #         ",
"        >/'                        #(%~+_ ####        #'        ",
"        #  #       #            ##   _:<         ##### [}       ",
"       #                    ##          #              |1       ",
"      # #     #   2      ##          #                  ##      ",
"               31)4#  #                  #                #     ",
"     # #       #%~~5                #     #               #     ",
"    '  #       6+~+<                                  #  # #    ",
"   ~%          #=:&2                       #             #  #   ",
"   &          #  '                 #                            ",
"   #  #      #   #    #                              #    #  7  ",
"   #  #     #    #     #                     #       #    #  |  ",
"   #             #      #         #                             ",
"         #       #                            #     #      #    ",
"     #  #        #                             #    #      #    ",
"       #         #          #    #                              ",
"    2 #                      # #8               # 99        #   ",
"    %0                        {]%a              b7%,}       #   ",
"    cd                        e~~f2             7~~~%d       #  ",
"    # #                       _%~g         ####2h~~~~i       j  ",
"  #    #                     # k<(              l~~~~<       ]  ",
"     #  #                                       <%~~|3       9  ",
"     #   #                #      #              '_mn#       #   ",
"  #       #                      #             #   #         #  ",
"  #                    #                                     #  ",
"  #             9    #                                     #    ",
"  0   #       3jopk #             #          #                  ",
" ~q   #       /~~~%{              #         #       #     #     ",
"             r%~~~~i                       #        #           ",
"   #          ~~~~~5                                     #      ",
"    #         n+~~)(#              #                        +   ",
"       #     # s!t>    #           #     #           #      a   ",
"       #                 ##             #            #  #  #    ",
"      #   #       #         #          #             #    #     ",
"       # #        #           ##    #                  # #      ",
"        +                        #                    i'        ",
"        .#         #                p-               e+ #       ",
"         #         #               # m               ' #        ",
"          # #                     #  #              # #         ",
"                    #           #                 #             ",
"           #   #    #         #                  #              ",
"            #   #            #        #         #   #           ",
"             =    #  #     #          #            #            ",
"             +p    # #   #                   #    s             ",
"                ### #d| #                   #    u+             ",
"                   ##a+'               #      #                 ",
"                     '  #   #####        ###                    ",
"                        ###           '[u                       ",
"                           ##       ##                          ",
"                             #2+ ##                             ",
"                               ~                                ",
"                                                                "};
