/* XPM */
static char * martex32_xpm[] = {
"32 33 36 1",
" 	c None",
".	c #54C6C6",
"+	c #3BB5B5",
"@	c #4BC0C0",
"#	c #4ABFBF",
"$	c #43BBBB",
"%	c #56C7C7",
"&	c #3FB8B8",
"*	c #49BFBF",
"=	c #3AB4B4",
"-	c #51C4C4",
";	c #49BEBE",
">	c #57C8C8",
",	c #4DC1C1",
"'	c #53C5C5",
")	c #47BDBD",
"!	c #59C9C9",
"~	c #40B8B8",
"{	c #36B2B2",
"]	c #33B0B0",
"^	c #5BCACA",
"/	c #50C3C3",
"(	c #5AC9C9",
"_	c #34B0B0",
":	c #52C4C4",
"<	c #4AC0C0",
"[	c #5ACACA",
"}	c #4FC3C3",
"|	c #43BABA",
"1	c #55C6C6",
"2	c #3CB6B6",
"3	c #4EC2C2",
"4	c #3DB6B6",
"5	c #4CC0C0",
"6	c #44BBBB",
"7	c #46BCBC",
"                .               ",
"                                ",
"           +@        #          ",
"                                ",
"                                ",
"                                ",
"                  $%            ",
"    &             *%=      =    ",
"                            +   ",
"        -;                      ",
"        >,                      ",
"                                ",
"                                ",
"                                ",
"                                ",
"  %            #'       )!~   { ",
"               ,%      ]^!/   # ",
" {                      /(#     ",
" {                            { ",
"        _                       ",
"       :!<                      ",
"       [!}                      ",
"       |}                       ",
"                                ",
"    1                      2    ",
"                  3             ",
"                                ",
"                                ",
"       #                        ",
"         {45                    ",
"            {      67           ",
"                                ",
"                                "};
