/* XPM */
static char * martex128_xpm[] = {
"128 130 69 1",
" 	c None",
".	c #59C9C9",
"+	c #56C7C7",
"@	c #4FC2C2",
"#	c #36B2B2",
"$	c #47BDBD",
"%	c #43BABA",
"&	c #3BB5B5",
"*	c #5ACACA",
"=	c #58C8C8",
"-	c #3CB5B5",
";	c #49BEBE",
">	c #4EC2C2",
",	c #35B2B2",
"'	c #41B9B9",
")	c #3DB6B6",
"!	c #3AB4B4",
"~	c #51C4C4",
"{	c #34B1B1",
"]	c #46BCBC",
"^	c #37B2B2",
"/	c #42B9B9",
"(	c #53C5C5",
"_	c #38B3B3",
":	c #44BBBB",
"<	c #54C5C5",
"[	c #4DC0C0",
"}	c #4BBFBF",
"|	c #39B4B4",
"1	c #5BCACA",
"2	c #5AC9C9",
"3	c #56C6C6",
"4	c #50C2C2",
"5	c #35B1B1",
"6	c #40B8B8",
"7	c #51C3C3",
"8	c #59C8C8",
"9	c #5BCBCB",
"0	c #33B1B1",
"a	c #34B0B0",
"b	c #4EC1C1",
"c	c #57C7C7",
"d	c #44BABA",
"e	c #52C4C4",
"f	c #5CCBCB",
"g	c #53C4C4",
"h	c #4ABFBF",
"i	c #57C8C8",
"j	c #4CC0C0",
"k	c #47BEBE",
"l	c #3CB6B6",
"m	c #50C3C3",
"n	c #3FB7B7",
"o	c #4BC0C0",
"p	c #3BB4B4",
"q	c #36B1B1",
"r	c #5CCACA",
"s	c #33B0B0",
"t	c #3EB7B7",
"u	c #45BCBC",
"v	c #4DC1C1",
"w	c #46BBBB",
"x	c #55C6C6",
"y	c #3AB5B5",
"z	c #48BDBD",
"A	c #47BCBC",
"B	c #3FB8B8",
"C	c #52C3C3",
"D	c #42BABA",
"                                                                                                                                ",
"                                                                  ..                                                            ",
"                                                                 +..@                                                           ",
"                                                               ##$..%###                                                        ",
"                                                            ###         ###                                                     ",
"                                                         ###               ###                                                  ",
"                                                      ###                      ###                                              ",
"                                                   ###                            #&*.                                          ",
"                                               =.*-################################;..>                                         ",
"                                             #,@.*'                                 +*)###                                      ",
"                                         ######!~  #                                {  #  ##                                    ",
"                                    ####    #  #    ##                             #    #   ##                                  ",
"                               ..]##      ##   #      #                            #     ##   ##                                ",
"                               ..=      ##    #        ##                         #       ##    ###                             ",
"                              ^..     ##      #          #                        #        ##     ###                           ",
"                             #       ##      #            ##                      #          #       /*.                        ",
"                            #      ##        #              #                    #            #       ..                        ",
"                           #     ##         #                ##                  #             #      .(_                       ",
"                          ##    #           #                  #                #               #       #                       ",
"                         ##   ##            #                   ##              #                ##      #                      ",
"                        ##  ##             #                      #             #                 ##     ##                     ",
"                       ##  #               #                       ##          #                   ##     #                     ",
"                       # ##               #                          #         #                     #    ##                    ",
"                      ###                 #                           ##   #{{,                       #    ##                   ",
"                     ##                  #                             ## {:<+[_                       #   ##                   ",
"                    ##                   #                               ,}*...._                       #   ##                  ",
"                 ..=                    #                                |1.....}#                       #  ###                 ",
"                 ..2                    #                                %2.....<{                        ## ##                 ",
"                 %345                   #                               #6*.....75#####                    #####                ",
"                 #   #                 #                             ### 5.....*%#     ########             ####                ",
"                ##    ##               #                          ###    #&82.1}5              ########       &<&               ",
"               # #     ##             #                       ###         #,/%&,                       ######59.80              ",
"               # #       #            #                    ###             #    #                             ..1a              ",
"              # #         ##         #                 ####                #     #                             b& #             ",
"             #  #          ##        #              ###                   #      #                            # ## #            ",
"            ##  #            #    5{5#           ###                      #       #                           #  ###            ",
"            #   #             ##56(c4&#      ###                          #       #                           #  ####           ",
"           #   #               #d*...1&   ###                            #         #                          #  # ###          ",
"          #    #               {2.....e5##                               #          #                        #   #  ##          ",
"          #    #               -1.....*{                                            #                        #    #  ##         ",
"         #                     _f.....={                                #            #                       #    #   ##        ",
"        _     #                {g.....h#                                #             #                     #     #   ##        ",
"       .*     #                #_c*.175#                               #              #                     #      #   ##       ",
"      ...     #               ## 56:)5  #                              #               #                    #      #    ##      ",
"       i.    #               #    ##     #                             #               ##                          #     #      ",
"       {     #              #      #      #                           #                 #                  #        #     #     ",
"       #     #             #               ##                         #                  #                 #        #     _@.   ",
"       ##    #           ##                 ##                        #                  #                 #        #     *..   ",
"       ##   #           ##        #           #                      #                    #               #          #     ..   ",
"       ##   #          #          #            #                     #                     #              #          #     jk   ",
"       ##   #         #           #             #                    #                     #              #          #          ",
"      # #  #         #            #              ##                 #                       #            #            #    #    ",
"      # #  #       ##             #               ##                #                        #           #            #    #    ",
"      # #  #      ##              #                 #               #                        #           #            #    #    ",
"      # #  #     #                #                  #             #                          #          #             #   #    ",
"      # # #     #                 #                   ##           #                          ##        #              #   #    ",
"      # # #    #                  #                    ##         #                            #        #              #   #    ",
"      # # #  ##                   #                      #        #                             #       #               #  #    ",
"      # ### ##                    #                       #       #                             #      #                #  #    ",
"      #  ^ #                      #                        #  {l%){                              # 5{#{,                #  #    ",
"      # 21h                       #                         ##g1.1g#                             #&m*12@|#               # #    ",
"        ...                       #                         ,b.....b,                           #/1.....1n#              # #    ",
"     #  =1o                       #                         51.....1{                           !1.......*_              # #    ",
"     #  {55#                      #                         ^9.....f##########                 5@.........j,              ##    ",
"     #  ##  #                     #                         {c.....c{          ################a*.........={              ^p    ",
"     #  #    #                    #                         #61...16#                          qr.........*s###           **    ",
"     # #  #   #                   #                        ##,tg=gt,                           {*.........=a     ########u...   ",
"     # #  #    #                  #                      ##    {a5#                            57.........v,              +.    ",
"     # #  #     #                                       ##       #                              l1.......1!               {     ",
"     #    #      #                                    ##          #                             ,w1.....1/#              ##     ",
"     ##    #      #              #                   ##           #                              ,t<919e-,               ##     ",
"      #    #       ##            #                 ##             #                             #  {#|5{                 ##     ",
"    ###    #        ##           #                #               #                            ##      #                # #     ",
"    ##     #         ##          #              ##                 #                           #       #                # #     ",
"    ##     #           #         #             #                   #                          #        #               #  #     ",
"    ##      #           #        #           ##                    #                         #         #               #  #     ",
"    ##      #            #       #          #                       #                       #          #              #   #     ",
"    #       #             #    #5{5#      ##                        #                      ##           #             #   #     ",
"    &       #              #  #]ex7u5    #                          #                      #            #             #   #     ",
"   .*.      #               #y=.....=!###                           #                     #             #            #    #     ",
"   ...       #              ^........8#                              #                   #              #            #    #     ",
"   .=        #             #h.........h#                             #                  #                           #     #     ",
"     #       #             s=.........i{                             #                 #                 #          #           ",
"      #      #             51.........15                             #                 #                 #         #     #      ",
"      ##     #             {*.........2{                              #               #                  #         #     #      ",
"       #      #            {g.........g5                              #              #                   #         #     n      ",
"        #     #             '*.......*'##                             #             #                     #       #     .*      ",
"         #    #             5v2.....2v5  ###                          #            #                      #       #     ...     ",
"         ##   #            # 5z2*.*2A{      ###                        #          ##                      #      #      >.      ",
"          #              ##   ##6%6##          ##                      #          #                       #      #     #{       ",
"           #   #        #          #             ###                   #         #                        #     #     ##        ",
"            #  #       #            #               ##                  #       #                          #    #    ##         ",
"            #  #     ##             #                 ###               #      #                           #    #   ##          ",
"             # #    #               #                    ###            #     ##                           #   #   ##           ",
"              # #  #                 #                      ##          #     #                            #   # ####           ",
"              #|}n#                  #                        ###        #   #                                # ## #            ",
"               c..                   #                           ##      #  #                               5 ### #             ",
"               ..2                    #                            ###   5 5                                7v5# #              ",
"                =B#                   #                               ## 92h                               2.*] #               ",
"                 ####                 #                                 h..C5##############################j.. ##               ",
"                  #  #                 #                                #8.                                5   #                ",
"                   #  ##               #                              ##  s                               #   #                 ",
"                    #  ##              #                            ##    #                             ##   #                  ",
"                    #    #              #                          ##      #                           #    #                   ",
"                     #    ##            #                        ##        #                          #     #                   ",
"                      #     #           #                      ##          #                        ##     #                    ",
"                       #     ##          #                    #             #                      ##     #                     ",
"                       #       #         #                  ##              #                     #      #                      ",
"                        #       ##       #                ##                #                   ##      #                       ",
"                         #       ##       #              #                  #                  ##       #                       ",
"                         ##        #      #            ##                    #                #        #                        ",
"                          #i.       ##    #          ##                      #               #        #                         ",
"                           ..+        #    #        #                        #             ##        #                          ",
"                           ..d##       ##  #      ##                                      #        .i&                          ",
"                               #####     # {    ##                            #          #        i..                           ",
"                                 #######  ,b**0#                              #        ##       ##D..                           ",
"                                    ###  #s..1-                               #       #      ###                                ",
"                                       ##  ..+5#####                           #     #    ###                                   ",
"                                         ##5   ##    #######                   #   ##  ###                                      ",
"                                            ###  ##          ########          B  #####                                         ",
"                                               ##  ##                ########  *.$##                                            ",
"                                                 ######                      #%2.c                                              ",
"                                                    ####                  #### 2.                                               ",
"                                                       ###             ###                                                      ",
"                                                         ###        ###                                                         ",
"                                                            #{..2a##                                                            ",
"                                                              ..2                                                               ",
"                                                               .                                                                ",
"                                                                                                                                ",
"                                                                                                                                "};
